<?xml version="1.0" encoding="UTF-8"?>
<svg xmlns="http://www.w3.org/2000/svg" viewBox="0 0 64 64" role="img" aria-label="Karo-Dental">
  <rect width="64" height="64" rx="12" fill="#0E2A3D"/>
  <!-- Stylised tooth -->
  <path d="M22 14c-5 0-9 3.5-9 9 0 5 2 8 3 12 1.2 4.6 1.2 9 2.4 13 .9 3 2.6 4 4.1 4 1.6 0 2.6-1.2 3-3.5l1.5-9c.3-1.7 1.2-2.6 3-2.6s2.7.9 3 2.6l1.5 9c.4 2.3 1.4 3.5 3 3.5 1.5 0 3.2-1 4.1-4 1.2-4 1.2-8.4 2.4-13 1-4 3-7 3-12 0-5.5-4-9-9-9-3.4 0-5.6 1.6-8 1.6S25.4 14 22 14z" fill="#F2F8FC"/>
  <!-- Sparkle accent -->
  <circle cx="46" cy="22" r="2.6" fill="#2E8FB4"/>
</svg>
